<?xml version="1.0" encoding="UTF-8" standalone="no"?>
<svg
   width="1200"
   height="630"
   viewBox="0 0 1200 629.99995"
   version="1.1"
   preserveAspectRatio="xMidYMid"
   id="svg28"
   sodipodi:docname="inkscape-banner_1200x1200.svg"
   inkscape:version="1.4.3 (0d15f75042, 2025-12-25)"
   xml:space="preserve"
   xmlns:inkscape="http://www.inkscape.org/namespaces/inkscape"
   xmlns:sodipodi="http://sodipodi.sourceforge.net/DTD/sodipodi-0.dtd"
   xmlns="http://www.w3.org/2000/svg"
   xmlns:svg="http://www.w3.org/2000/svg"
   xmlns:rdf="http://www.w3.org/1999/02/22-rdf-syntax-ns#"
   xmlns:cc="http://creativecommons.org/ns#"
   xmlns:dc="http://purl.org/dc/elements/1.1/"><title
     id="title3">Forgejo | (Holloway) Chew, Kean Ho's Creative Visuals</title><defs
     id="defs32"><linearGradient
       id="swatch40"
       inkscape:swatch="solid"><stop
         style="stop-color:#000000;stop-opacity:1;"
         offset="0"
         id="stop40" /></linearGradient></defs><sodipodi:namedview
     id="namedview30"
     pagecolor="#ffffff"
     bordercolor="#666666"
     borderopacity="1.0"
     inkscape:pageshadow="2"
     inkscape:pageopacity="0.0"
     inkscape:pagecheckerboard="true"
     showgrid="false"
     inkscape:zoom="0.39831435"
     inkscape:cx="610.07092"
     inkscape:cy="110.46552"
     inkscape:window-width="1920"
     inkscape:window-height="987"
     inkscape:window-x="0"
     inkscape:window-y="32"
     inkscape:window-maximized="1"
     inkscape:current-layer="svg28"
     inkscape:showpageshadow="0"
     inkscape:deskcolor="#505050" /><path
     id="background"
     style="display:inline;fill:#ffffff;stroke:none"
     inkscape:label="background"
     d="M 0,0 H 1200 V 630 H 0 Z" /><style
     type="text/css"
     id="style856">
	.st0{fill:url(#SVGID_1_);stroke:#745C00;stroke-miterlimit:10;}
	.st1{fill:url(#SVGID_2_);stroke:#745C00;stroke-miterlimit:10;}
	.st2{fill:url(#SVGID_3_);stroke:#745C00;stroke-miterlimit:10;}
	.st3{fill:url(#SVGID_4_);stroke:#745C00;stroke-miterlimit:10;}
	.st4{fill:url(#SVGID_5_);stroke:#025641;stroke-miterlimit:10;}
	.st5{fill:url(#SVGID_6_);stroke:#025641;stroke-miterlimit:10;}
	.st6{fill:url(#SVGID_7_);stroke:#745C00;stroke-miterlimit:10;}
	.st7{fill:url(#SVGID_8_);stroke:#745C00;stroke-miterlimit:10;}
	.st8{fill:url(#SVGID_9_);stroke:#745C00;stroke-miterlimit:10;}
	.st9{fill:url(#SVGID_10_);stroke:#745C00;stroke-miterlimit:10;}
	.st10{fill:url(#SVGID_11_);stroke:#745C00;stroke-miterlimit:10;}
	.st11{fill:url(#SVGID_12_);stroke:#745C00;stroke-miterlimit:10;}
	.st12{fill:url(#SVGID_13_);stroke:#745C00;stroke-miterlimit:10;}
	.st13{fill:url(#SVGID_14_);}
	.st14{fill:url(#SVGID_15_);}
	.st15{fill:url(#SVGID_16_);stroke:#745C00;stroke-miterlimit:10;}
	.st16{fill:url(#SVGID_17_);}
	.st17{fill:url(#SVGID_18_);}
	.st18{fill:url(#SVGID_19_);stroke:#745C00;stroke-miterlimit:10;}
	.st19{fill:url(#SVGID_20_);stroke:#745C00;stroke-miterlimit:10;}
	.st20{fill:url(#SVGID_21_);stroke:#745C00;stroke-miterlimit:10;}
	.st21{fill:url(#SVGID_22_);stroke:#745C00;stroke-miterlimit:10;}
	.st22{fill:url(#SVGID_23_);stroke:#745C00;stroke-miterlimit:10;}
	.st23{fill:url(#SVGID_24_);stroke:#745C00;stroke-miterlimit:10;}
	.st24{fill:url(#SVGID_25_);stroke:#025641;stroke-miterlimit:10;}
	.st25{fill:url(#SVGID_26_);stroke:#025641;stroke-miterlimit:10;}
	.st26{fill:url(#SVGID_27_);stroke:#745C00;stroke-miterlimit:10;}
	.st27{fill:url(#SVGID_28_);stroke:#745C00;stroke-miterlimit:10;}
	.st28{fill:url(#SVGID_29_);stroke:#745C00;stroke-miterlimit:10;}
	.st29{fill:url(#SVGID_30_);stroke:#745C00;stroke-miterlimit:10;}
	.st30{fill:url(#SVGID_31_);stroke:#745C00;stroke-miterlimit:10;}
	.st31{fill:url(#SVGID_32_);stroke:#745C00;stroke-miterlimit:10;}
	.st32{fill:url(#SVGID_33_);stroke:#745C00;stroke-miterlimit:10;}
	.st33{fill:url(#SVGID_34_);stroke:#745C00;stroke-miterlimit:10;}
	.st34{fill:url(#SVGID_35_);stroke:#025641;stroke-miterlimit:10;}
	.st35{fill:none;}
	.st36{fill:url(#SVGID_36_);stroke:#745C00;stroke-miterlimit:10;}
	.st37{fill:url(#SVGID_37_);stroke:#745C00;stroke-miterlimit:10;}
</style><style
     type="text/css"
     id="style1299">
	.st0{fill:url(#SVGID_1_);stroke:#745C00;stroke-miterlimit:10;}
	.st1{fill:url(#SVGID_2_);stroke:#745C00;stroke-miterlimit:10;}
	.st2{fill:url(#SVGID_3_);stroke:#745C00;stroke-miterlimit:10;}
	.st3{fill:url(#SVGID_4_);stroke:#745C00;stroke-miterlimit:10;}
	.st4{fill:url(#SVGID_5_);stroke:#025641;stroke-miterlimit:10;}
	.st5{fill:url(#SVGID_6_);stroke:#025641;stroke-miterlimit:10;}
	.st6{fill:url(#SVGID_7_);stroke:#745C00;stroke-miterlimit:10;}
	.st7{fill:url(#SVGID_8_);stroke:#745C00;stroke-miterlimit:10;}
	.st8{fill:url(#SVGID_9_);stroke:#745C00;stroke-miterlimit:10;}
	.st9{fill:url(#SVGID_10_);stroke:#745C00;stroke-miterlimit:10;}
	.st10{fill:url(#SVGID_11_);stroke:#745C00;stroke-miterlimit:10;}
	.st11{fill:url(#SVGID_12_);stroke:#745C00;stroke-miterlimit:10;}
	.st12{fill:url(#SVGID_13_);stroke:#745C00;stroke-miterlimit:10;}
	.st13{fill:url(#SVGID_14_);}
	.st14{fill:url(#SVGID_15_);}
	.st15{fill:url(#SVGID_16_);stroke:#745C00;stroke-miterlimit:10;}
	.st16{fill:url(#SVGID_17_);}
	.st17{fill:url(#SVGID_18_);}
	.st18{fill:url(#SVGID_19_);stroke:#745C00;stroke-miterlimit:10;}
	.st19{fill:url(#SVGID_20_);stroke:#745C00;stroke-miterlimit:10;}
	.st20{fill:url(#SVGID_21_);stroke:#745C00;stroke-miterlimit:10;}
	.st21{fill:url(#SVGID_22_);stroke:#745C00;stroke-miterlimit:10;}
	.st22{fill:url(#SVGID_23_);stroke:#745C00;stroke-miterlimit:10;}
	.st23{fill:url(#SVGID_24_);stroke:#745C00;stroke-miterlimit:10;}
	.st24{fill:url(#SVGID_25_);stroke:#025641;stroke-miterlimit:10;}
	.st25{fill:url(#SVGID_26_);stroke:#025641;stroke-miterlimit:10;}
	.st26{fill:url(#SVGID_27_);stroke:#745C00;stroke-miterlimit:10;}
	.st27{fill:url(#SVGID_28_);stroke:#745C00;stroke-miterlimit:10;}
	.st28{fill:url(#SVGID_29_);stroke:#745C00;stroke-miterlimit:10;}
	.st29{fill:url(#SVGID_30_);stroke:#745C00;stroke-miterlimit:10;}
	.st30{fill:url(#SVGID_31_);stroke:#745C00;stroke-miterlimit:10;}
	.st31{fill:url(#SVGID_32_);stroke:#745C00;stroke-miterlimit:10;}
	.st32{fill:url(#SVGID_33_);stroke:#745C00;stroke-miterlimit:10;}
	.st33{fill:url(#SVGID_34_);stroke:#745C00;stroke-miterlimit:10;}
	.st34{fill:url(#SVGID_35_);stroke:#025641;stroke-miterlimit:10;}
	.st35{fill:none;}
	.st36{fill:url(#SVGID_36_);stroke:#745C00;stroke-miterlimit:10;}
	.st37{fill:url(#SVGID_37_);stroke:#745C00;stroke-miterlimit:10;}
</style><style
     type="text/css"
     id="global">
	:root {
		max-width: 100%;
		max-height: 100%;

		--path-width: 25;
		--path-circle-width: 15;
		--path-length-light: 200;
		--path-length-dark: 130;
	}

	#path-light,
	#path-dark {
		stroke-dashoffset: 0;
		stroke-width: var(--path-width);
	}

	#circle-start,
	#circle-end-dark,
	#circle-end-light {
		stroke-width: var(--path-circle-width);
	}

	#path-dark {
		stroke-dasharray: var(--path-length-dark);
		animation: draw-path-dark 2000ms ease-out 5ms infinite;
	}

	#circle-end-dark {
		animation: draw-circle-dark 2000ms ease-out 5ms infinite;
	}

	#path-light {
		stroke-dasharray: var(--path-length-light);
		animation: draw-path-light 2000ms ease-out 5ms infinite;
	}

	#circle-end-light {
		animation: draw-circle-light 2000ms ease-out 5ms infinite;
	}

	#foreground-animated {
		opacity: 1;
		animation: reset-fade-out 2000ms ease-in-out 5ms infinite;
	}

	@keyframes reset-fade-out {
		0%, 25%, 100% { opacity: 1; }
		5%, 6% { opacity: 0; }
		24% { opacity: .5; }
	}

	@keyframes draw-path-dark {
		0%, 100% { stroke-dashoffset: 0; stroke-width: var(--path-width); }
		15%, 25% { stroke-dashoffset: var(--path-length-dark); stroke-width: 0; }
		55% { stroke-dashoffset: 0; stroke-width: var(--path-width); }
	}

	@keyframes draw-circle-dark {
		0%, 100% { stroke-width: var(--path-circle-width); }
		13%, 50% { stroke-width: 0; }
		53% { stroke-width: var(--path-circle-width); }
	}

	@keyframes draw-path-light {
		0%, 100% { stroke-dashoffset: 0; stroke-width: var(--path-width); }
		15%, 45%, 55% { stroke-dashoffset: var(--path-length-light); stroke-width: 0; }
		75% { stroke-dashoffset: 0; stroke-width: var(--path-width); }
	}

	@keyframes draw-circle-light {
		0%, 100% { stroke-width: var(--path-circle-width); }
		13%, 70% { stroke-width: 0; }
		73% { stroke-width: var(--path-circle-width); }
	}
</style><metadata
     id="metadata1"><rdf:RDF><cc:Work
         rdf:about=""><dc:title>Forgejo | (Holloway) Chew, Kean Ho's Creative Visuals</dc:title><dc:date>2026-03-16</dc:date><dc:creator><cc:Agent><dc:title>Created-by: Caesar Schinas; Re-created by: (Holloway) Chew, Kean Ho</dc:title></cc:Agent></dc:creator><dc:rights><cc:Agent><dc:title>(Holloway) Chew, Kean Ho</dc:title></cc:Agent></dc:rights><dc:publisher><cc:Agent><dc:title>(Holloway) Chew, Kean Ho</dc:title></cc:Agent></dc:publisher><dc:identifier>chewkeanho-visuals-trademarks-forgejo</dc:identifier><dc:source>https://codeberg.org/forgejo/governance/src/branch/main/branding</dc:source><dc:relation>product identification</dc:relation><dc:language>any</dc:language><dc:subject><rdf:Bag><rdf:li>visuals</rdf:li><rdf:li>banner</rdf:li><rdf:li>forgejo</rdf:li></rdf:Bag></dc:subject><dc:coverage>banner</dc:coverage><dc:description>The visuals trademark banner for Forgejo.</dc:description><cc:license
           rdf:resource="http://creativecommons.org/licenses/by-nd/4.0/" /></cc:Work><cc:License
         rdf:about="http://creativecommons.org/licenses/by-nd/4.0/"><cc:permits
           rdf:resource="http://creativecommons.org/ns#Reproduction" /><cc:permits
           rdf:resource="http://creativecommons.org/ns#Distribution" /><cc:requires
           rdf:resource="http://creativecommons.org/ns#Notice" /><cc:requires
           rdf:resource="http://creativecommons.org/ns#Attribution" /></cc:License></rdf:RDF></metadata><style
     type="text/css"
     id="style856-8">
	.st0{fill:url(#SVGID_1_);stroke:#745C00;stroke-miterlimit:10;}
	.st1{fill:url(#SVGID_2_);stroke:#745C00;stroke-miterlimit:10;}
	.st2{fill:url(#SVGID_3_);stroke:#745C00;stroke-miterlimit:10;}
	.st3{fill:url(#SVGID_4_);stroke:#745C00;stroke-miterlimit:10;}
	.st4{fill:url(#SVGID_5_);stroke:#025641;stroke-miterlimit:10;}
	.st5{fill:url(#SVGID_6_);stroke:#025641;stroke-miterlimit:10;}
	.st6{fill:url(#SVGID_7_);stroke:#745C00;stroke-miterlimit:10;}
	.st7{fill:url(#SVGID_8_);stroke:#745C00;stroke-miterlimit:10;}
	.st8{fill:url(#SVGID_9_);stroke:#745C00;stroke-miterlimit:10;}
	.st9{fill:url(#SVGID_10_);stroke:#745C00;stroke-miterlimit:10;}
	.st10{fill:url(#SVGID_11_);stroke:#745C00;stroke-miterlimit:10;}
	.st11{fill:url(#SVGID_12_);stroke:#745C00;stroke-miterlimit:10;}
	.st12{fill:url(#SVGID_13_);stroke:#745C00;stroke-miterlimit:10;}
	.st13{fill:url(#SVGID_14_);}
	.st14{fill:url(#SVGID_15_);}
	.st15{fill:url(#SVGID_16_);stroke:#745C00;stroke-miterlimit:10;}
	.st16{fill:url(#SVGID_17_);}
	.st17{fill:url(#SVGID_18_);}
	.st18{fill:url(#SVGID_19_);stroke:#745C00;stroke-miterlimit:10;}
	.st19{fill:url(#SVGID_20_);stroke:#745C00;stroke-miterlimit:10;}
	.st20{fill:url(#SVGID_21_);stroke:#745C00;stroke-miterlimit:10;}
	.st21{fill:url(#SVGID_22_);stroke:#745C00;stroke-miterlimit:10;}
	.st22{fill:url(#SVGID_23_);stroke:#745C00;stroke-miterlimit:10;}
	.st23{fill:url(#SVGID_24_);stroke:#745C00;stroke-miterlimit:10;}
	.st24{fill:url(#SVGID_25_);stroke:#025641;stroke-miterlimit:10;}
	.st25{fill:url(#SVGID_26_);stroke:#025641;stroke-miterlimit:10;}
	.st26{fill:url(#SVGID_27_);stroke:#745C00;stroke-miterlimit:10;}
	.st27{fill:url(#SVGID_28_);stroke:#745C00;stroke-miterlimit:10;}
	.st28{fill:url(#SVGID_29_);stroke:#745C00;stroke-miterlimit:10;}
	.st29{fill:url(#SVGID_30_);stroke:#745C00;stroke-miterlimit:10;}
	.st30{fill:url(#SVGID_31_);stroke:#745C00;stroke-miterlimit:10;}
	.st31{fill:url(#SVGID_32_);stroke:#745C00;stroke-miterlimit:10;}
	.st32{fill:url(#SVGID_33_);stroke:#745C00;stroke-miterlimit:10;}
	.st33{fill:url(#SVGID_34_);stroke:#745C00;stroke-miterlimit:10;}
	.st34{fill:url(#SVGID_35_);stroke:#025641;stroke-miterlimit:10;}
	.st35{fill:none;}
	.st36{fill:url(#SVGID_36_);stroke:#745C00;stroke-miterlimit:10;}
	.st37{fill:url(#SVGID_37_);stroke:#745C00;stroke-miterlimit:10;}
</style><style
     type="text/css"
     id="style1299-4">
	.st0{fill:url(#SVGID_1_);stroke:#745C00;stroke-miterlimit:10;}
	.st1{fill:url(#SVGID_2_);stroke:#745C00;stroke-miterlimit:10;}
	.st2{fill:url(#SVGID_3_);stroke:#745C00;stroke-miterlimit:10;}
	.st3{fill:url(#SVGID_4_);stroke:#745C00;stroke-miterlimit:10;}
	.st4{fill:url(#SVGID_5_);stroke:#025641;stroke-miterlimit:10;}
	.st5{fill:url(#SVGID_6_);stroke:#025641;stroke-miterlimit:10;}
	.st6{fill:url(#SVGID_7_);stroke:#745C00;stroke-miterlimit:10;}
	.st7{fill:url(#SVGID_8_);stroke:#745C00;stroke-miterlimit:10;}
	.st8{fill:url(#SVGID_9_);stroke:#745C00;stroke-miterlimit:10;}
	.st9{fill:url(#SVGID_10_);stroke:#745C00;stroke-miterlimit:10;}
	.st10{fill:url(#SVGID_11_);stroke:#745C00;stroke-miterlimit:10;}
	.st11{fill:url(#SVGID_12_);stroke:#745C00;stroke-miterlimit:10;}
	.st12{fill:url(#SVGID_13_);stroke:#745C00;stroke-miterlimit:10;}
	.st13{fill:url(#SVGID_14_);}
	.st14{fill:url(#SVGID_15_);}
	.st15{fill:url(#SVGID_16_);stroke:#745C00;stroke-miterlimit:10;}
	.st16{fill:url(#SVGID_17_);}
	.st17{fill:url(#SVGID_18_);}
	.st18{fill:url(#SVGID_19_);stroke:#745C00;stroke-miterlimit:10;}
	.st19{fill:url(#SVGID_20_);stroke:#745C00;stroke-miterlimit:10;}
	.st20{fill:url(#SVGID_21_);stroke:#745C00;stroke-miterlimit:10;}
	.st21{fill:url(#SVGID_22_);stroke:#745C00;stroke-miterlimit:10;}
	.st22{fill:url(#SVGID_23_);stroke:#745C00;stroke-miterlimit:10;}
	.st23{fill:url(#SVGID_24_);stroke:#745C00;stroke-miterlimit:10;}
	.st24{fill:url(#SVGID_25_);stroke:#025641;stroke-miterlimit:10;}
	.st25{fill:url(#SVGID_26_);stroke:#025641;stroke-miterlimit:10;}
	.st26{fill:url(#SVGID_27_);stroke:#745C00;stroke-miterlimit:10;}
	.st27{fill:url(#SVGID_28_);stroke:#745C00;stroke-miterlimit:10;}
	.st28{fill:url(#SVGID_29_);stroke:#745C00;stroke-miterlimit:10;}
	.st29{fill:url(#SVGID_30_);stroke:#745C00;stroke-miterlimit:10;}
	.st30{fill:url(#SVGID_31_);stroke:#745C00;stroke-miterlimit:10;}
	.st31{fill:url(#SVGID_32_);stroke:#745C00;stroke-miterlimit:10;}
	.st32{fill:url(#SVGID_33_);stroke:#745C00;stroke-miterlimit:10;}
	.st33{fill:url(#SVGID_34_);stroke:#745C00;stroke-miterlimit:10;}
	.st34{fill:url(#SVGID_35_);stroke:#025641;stroke-miterlimit:10;}
	.st35{fill:none;}
	.st36{fill:url(#SVGID_36_);stroke:#745C00;stroke-miterlimit:10;}
	.st37{fill:url(#SVGID_37_);stroke:#745C00;stroke-miterlimit:10;}
</style><style
     type="text/css"
     id="style856-2">
	.st0{fill:url(#SVGID_1_);stroke:#745C00;stroke-miterlimit:10;}
	.st1{fill:url(#SVGID_2_);stroke:#745C00;stroke-miterlimit:10;}
	.st2{fill:url(#SVGID_3_);stroke:#745C00;stroke-miterlimit:10;}
	.st3{fill:url(#SVGID_4_);stroke:#745C00;stroke-miterlimit:10;}
	.st4{fill:url(#SVGID_5_);stroke:#025641;stroke-miterlimit:10;}
	.st5{fill:url(#SVGID_6_);stroke:#025641;stroke-miterlimit:10;}
	.st6{fill:url(#SVGID_7_);stroke:#745C00;stroke-miterlimit:10;}
	.st7{fill:url(#SVGID_8_);stroke:#745C00;stroke-miterlimit:10;}
	.st8{fill:url(#SVGID_9_);stroke:#745C00;stroke-miterlimit:10;}
	.st9{fill:url(#SVGID_10_);stroke:#745C00;stroke-miterlimit:10;}
	.st10{fill:url(#SVGID_11_);stroke:#745C00;stroke-miterlimit:10;}
	.st11{fill:url(#SVGID_12_);stroke:#745C00;stroke-miterlimit:10;}
	.st12{fill:url(#SVGID_13_);stroke:#745C00;stroke-miterlimit:10;}
	.st13{fill:url(#SVGID_14_);}
	.st14{fill:url(#SVGID_15_);}
	.st15{fill:url(#SVGID_16_);stroke:#745C00;stroke-miterlimit:10;}
	.st16{fill:url(#SVGID_17_);}
	.st17{fill:url(#SVGID_18_);}
	.st18{fill:url(#SVGID_19_);stroke:#745C00;stroke-miterlimit:10;}
	.st19{fill:url(#SVGID_20_);stroke:#745C00;stroke-miterlimit:10;}
	.st20{fill:url(#SVGID_21_);stroke:#745C00;stroke-miterlimit:10;}
	.st21{fill:url(#SVGID_22_);stroke:#745C00;stroke-miterlimit:10;}
	.st22{fill:url(#SVGID_23_);stroke:#745C00;stroke-miterlimit:10;}
	.st23{fill:url(#SVGID_24_);stroke:#745C00;stroke-miterlimit:10;}
	.st24{fill:url(#SVGID_25_);stroke:#025641;stroke-miterlimit:10;}
	.st25{fill:url(#SVGID_26_);stroke:#025641;stroke-miterlimit:10;}
	.st26{fill:url(#SVGID_27_);stroke:#745C00;stroke-miterlimit:10;}
	.st27{fill:url(#SVGID_28_);stroke:#745C00;stroke-miterlimit:10;}
	.st28{fill:url(#SVGID_29_);stroke:#745C00;stroke-miterlimit:10;}
	.st29{fill:url(#SVGID_30_);stroke:#745C00;stroke-miterlimit:10;}
	.st30{fill:url(#SVGID_31_);stroke:#745C00;stroke-miterlimit:10;}
	.st31{fill:url(#SVGID_32_);stroke:#745C00;stroke-miterlimit:10;}
	.st32{fill:url(#SVGID_33_);stroke:#745C00;stroke-miterlimit:10;}
	.st33{fill:url(#SVGID_34_);stroke:#745C00;stroke-miterlimit:10;}
	.st34{fill:url(#SVGID_35_);stroke:#025641;stroke-miterlimit:10;}
	.st35{fill:none;}
	.st36{fill:url(#SVGID_36_);stroke:#745C00;stroke-miterlimit:10;}
	.st37{fill:url(#SVGID_37_);stroke:#745C00;stroke-miterlimit:10;}
</style><style
     type="text/css"
     id="style1299-9">
	.st0{fill:url(#SVGID_1_);stroke:#745C00;stroke-miterlimit:10;}
	.st1{fill:url(#SVGID_2_);stroke:#745C00;stroke-miterlimit:10;}
	.st2{fill:url(#SVGID_3_);stroke:#745C00;stroke-miterlimit:10;}
	.st3{fill:url(#SVGID_4_);stroke:#745C00;stroke-miterlimit:10;}
	.st4{fill:url(#SVGID_5_);stroke:#025641;stroke-miterlimit:10;}
	.st5{fill:url(#SVGID_6_);stroke:#025641;stroke-miterlimit:10;}
	.st6{fill:url(#SVGID_7_);stroke:#745C00;stroke-miterlimit:10;}
	.st7{fill:url(#SVGID_8_);stroke:#745C00;stroke-miterlimit:10;}
	.st8{fill:url(#SVGID_9_);stroke:#745C00;stroke-miterlimit:10;}
	.st9{fill:url(#SVGID_10_);stroke:#745C00;stroke-miterlimit:10;}
	.st10{fill:url(#SVGID_11_);stroke:#745C00;stroke-miterlimit:10;}
	.st11{fill:url(#SVGID_12_);stroke:#745C00;stroke-miterlimit:10;}
	.st12{fill:url(#SVGID_13_);stroke:#745C00;stroke-miterlimit:10;}
	.st13{fill:url(#SVGID_14_);}
	.st14{fill:url(#SVGID_15_);}
	.st15{fill:url(#SVGID_16_);stroke:#745C00;stroke-miterlimit:10;}
	.st16{fill:url(#SVGID_17_);}
	.st17{fill:url(#SVGID_18_);}
	.st18{fill:url(#SVGID_19_);stroke:#745C00;stroke-miterlimit:10;}
	.st19{fill:url(#SVGID_20_);stroke:#745C00;stroke-miterlimit:10;}
	.st20{fill:url(#SVGID_21_);stroke:#745C00;stroke-miterlimit:10;}
	.st21{fill:url(#SVGID_22_);stroke:#745C00;stroke-miterlimit:10;}
	.st22{fill:url(#SVGID_23_);stroke:#745C00;stroke-miterlimit:10;}
	.st23{fill:url(#SVGID_24_);stroke:#745C00;stroke-miterlimit:10;}
	.st24{fill:url(#SVGID_25_);stroke:#025641;stroke-miterlimit:10;}
	.st25{fill:url(#SVGID_26_);stroke:#025641;stroke-miterlimit:10;}
	.st26{fill:url(#SVGID_27_);stroke:#745C00;stroke-miterlimit:10;}
	.st27{fill:url(#SVGID_28_);stroke:#745C00;stroke-miterlimit:10;}
	.st28{fill:url(#SVGID_29_);stroke:#745C00;stroke-miterlimit:10;}
	.st29{fill:url(#SVGID_30_);stroke:#745C00;stroke-miterlimit:10;}
	.st30{fill:url(#SVGID_31_);stroke:#745C00;stroke-miterlimit:10;}
	.st31{fill:url(#SVGID_32_);stroke:#745C00;stroke-miterlimit:10;}
	.st32{fill:url(#SVGID_33_);stroke:#745C00;stroke-miterlimit:10;}
	.st33{fill:url(#SVGID_34_);stroke:#745C00;stroke-miterlimit:10;}
	.st34{fill:url(#SVGID_35_);stroke:#025641;stroke-miterlimit:10;}
	.st35{fill:none;}
	.st36{fill:url(#SVGID_36_);stroke:#745C00;stroke-miterlimit:10;}
	.st37{fill:url(#SVGID_37_);stroke:#745C00;stroke-miterlimit:10;}
</style><g
     transform="matrix(1.454276,0,0,1.454276,54.508575,142.99852)"
     id="foreground"
     inkscape:label="foreground"><g
       id="foreground-animated"
       inkscape:label="foreground-animated"
       transform="matrix(0.99993597,0,0,0.99993597,0.0029134,-3.5216921e-4)"><path
         d="M 58,168 V 70 a 50,50 0 0 1 50,-50 h 20"
         class="orange"
         id="path-light"
         inkscape:label="path-light"
         style="fill:none;stroke:#ff6600;stroke-width:25;stroke-opacity:1" /><path
         d="m 58,168 v -30 a 50,50 0 0 1 50,-50 h 20"
         class="red"
         id="path-dark"
         inkscape:label="path-dark"
         style="fill:none;stroke:#d40000;stroke-width:25" /><path
         id="circle-end-light"
         style="opacity:1;fill:none;stroke:#ff6600;stroke-width:15"
         class="orange"
         inkscape:label="circle-end-light"
         d="M 160,20 A 18,18 0 0 1 142,38 18,18 0 0 1 124,20 18,18 0 0 1 142,2 18,18 0 0 1 160,20 Z" /><path
         id="circle-end-dark"
         style="opacity:1;fill:none;stroke:#d40000;stroke-width:15"
         class="red"
         inkscape:label="circle-end-dark"
         d="m 160,88 a 18,18 0 0 1 -18,18 18,18 0 0 1 -18,-18 18,18 0 0 1 18,-18 18,18 0 0 1 18,18 z" /></g><path
       id="wordmark"
       style="font-size:226.667px;line-height:1.25;font-family:Montserrat;-inkscape-font-specification:'Montserrat, @wght=451';font-variation-settings:'wght' 451;opacity:1;fill:#ff5500;fill-opacity:1;fill-rule:nonzero;stroke:none;stroke-width:1;stroke-dasharray:none;stroke-opacity:1"
       d="m 628.00005,91.650206 a 17.25,17.25 0 0 0 -17.25006,17.249544 17.25,17.25 0 0 0 17.25006,17.25006 17.25,17.25 0 0 0 17.25006,-17.25006 17.25,17.25 0 0 0 -17.25006,-17.249544 z M 202.32662,120.03632 c -11.9378,0 -22.51549,2.64472 -31.73329,7.93359 -9.2178,5.1378 -16.54685,12.31532 -21.98685,21.53312 -5.28887,9.06666 -7.93307,19.56914 -7.93307,31.50694 0,11.78666 2.6442,22.28907 7.93307,31.50694 5.44,9.21773 12.76905,16.47105 21.98685,21.75999 9.36893,5.13773 19.94663,7.7062 31.73329,7.7062 11.78667,0 22.28914,-2.56892 31.50694,-7.70672 9.36887,-5.28887 16.69792,-12.54219 21.98686,-21.75999 5.28886,-9.2178 7.93306,-19.71976 7.93306,-31.50642 0,-11.9378 -2.6442,-22.44028 -7.93306,-31.50694 -5.28894,-9.2178 -12.61799,-16.39532 -21.98686,-21.53312 -9.2178,-5.28887 -19.72027,-7.93359 -31.50694,-7.93359 z m 139.85728,0 c -11.63553,0 -21.38255,2.34217 -29.24035,7.02664 -6.57244,3.79181 -11.5588,9.01112 -14.9597,15.65735 V 121.16962 H 279.85061 V 240.8498 h 19.03967 v -60.29305 c 0,-13.6 3.4759,-24.02674 10.42703,-31.28007 6.95114,-7.4044 16.39561,-11.1066 28.33341,-11.1066 0.75553,0 1.51106,0.0753 2.26659,0.22635 0.7556,0 1.51112,0.0757 2.26659,0.22686 z m 64.24382,0 c -11.4845,0 -21.83593,2.4179 -31.05373,7.2535 -9.0667,4.8355 -16.24412,11.63533 -21.53312,20.39983 -5.2889,8.6133 -7.93358,18.66228 -7.93358,30.14678 0,11.4844 2.64468,21.60915 7.93358,30.37365 5.2889,8.7644 12.46642,15.63999 21.53312,20.62669 9.2178,4.8355 19.56923,7.25299 31.05373,7.25299 10.4267,0 19.79534,-2.19071 28.10654,-6.57291 5.08246,-2.63204 9.53825,-6.02741 13.36699,-10.1857 l -0.59378,8.14546 c -1.033,14.1668 -3.47532,24.70694 -10.42652,31.50694 -6.9511,6.9511 -17.75547,10.42652 -32.41337,10.42652 -8.9155,0 -17.52886,-1.43583 -25.83996,-4.30683 -8.16,-2.8711 -15.03559,-6.79998 -20.62669,-11.78668 l -9.52009,14.73335 c 6.4978,5.7423 14.80851,10.12464 24.93301,13.14684 10.2756,3.1734 20.85381,4.76005 31.73381,4.76005 20.0978,0 35.28419,-4.91115 45.55969,-14.73335 10.2756,-9.6711 15.41343,-24.93326 15.41343,-45.78656 0,-28.7432 3.76702,-64.08452 -7.41318,-79.56062 -4.9866,-8.6133 -11.71128,-15.03533 -20.17348,-19.26653 -8.3112,-4.3822 -21.6798,-6.57342 -32.1064,-6.57342 z m 310.90471,0 c -11.9378,0 -22.5155,2.64472 -31.7333,7.93359 -9.2178,5.1378 -16.54685,12.31532 -21.98685,21.53312 -5.28886,9.06666 -7.93306,19.56914 -7.93306,31.50694 0,11.78666 2.64465,22.28907 7.93358,31.50694 5.44,9.21773 12.76853,16.47105 21.98633,21.75999 9.36887,5.13773 19.94663,7.7062 31.7333,7.7062 11.78673,0 22.28921,-2.56892 31.50694,-7.70672 9.36893,-5.28887 16.69798,-12.54219 21.98685,-21.75999 5.28893,-9.2178 7.93307,-19.71976 7.93307,-31.50642 0,-11.9378 -2.64414,-22.44028 -7.93307,-31.50694 -5.28887,-9.2178 -12.61792,-16.39532 -21.98685,-21.53312 -9.2178,-5.28887 -19.72028,-7.93359 -31.50694,-7.93359 z m -174.2742,0.26356 c -11.48447,0 -21.75968,2.64465 -30.82635,7.93358 -8.9156,5.13774 -15.94269,12.31532 -21.08042,21.53312 -5.1378,9.2178 -7.70672,19.72028 -7.70672,31.50695 0,11.78666 2.64465,22.28855 7.93359,31.50642 5.44,9.21773 12.92006,16.47157 22.44006,21.7605 9.67114,5.1378 20.7776,7.7062 33.3198,7.7062 9.82227,-6e-5 18.73797,-1.66199 26.7469,-4.98639 8.00887,-3.32447 14.58246,-8.16034 19.72026,-14.507 l -10.42703,-12.2399 c -4.38227,5.13773 -9.59538,8.9914 -15.63978,11.56033 -6.04447,2.41774 -12.69328,3.62624 -19.94661,3.62624 -9.06674,0 -17.07551,-1.81295 -24.02658,-5.43961 -6.80007,-3.77774 -12.16465,-9.06665 -16.09351,-15.86665 -1.21762,-2.2404 -2.23933,-4.59883 -3.0645,-7.07469 l 96.90421,-18.99213 c -0.3022,-11.6356 -3.09741,-21.76031 -8.38628,-30.37364 -5.13786,-8.76447 -12.01336,-15.5643 -20.62669,-20.39983 -8.61333,-4.8356 -18.36035,-7.2535 -29.24035,-7.2535 z m 0,16.32038 c 7.8578,0 14.80909,1.81294 20.85356,5.43961 6.04446,3.47553 10.72887,8.23567 14.05327,14.28013 2.12519,3.69592 3.60048,7.67458 4.4262,11.93552 l -80.48306,15.53849 c -0.069,-1.204 -0.10335,-2.4284 -0.10335,-3.67378 0,-8.76447 1.73817,-16.39548 5.21377,-22.89328 3.47554,-6.49773 8.31089,-11.56042 14.50649,-15.18708 6.34666,-3.62667 13.52425,-5.43961 21.53312,-5.43961 z m -340.73161,0.18966 c 8.16,0 15.41332,1.81345 21.75999,5.44012 6.34667,3.62667 11.33355,8.76405 14.96021,15.41292 3.7778,6.64893 5.66648,14.43147 5.66648,23.34701 0,8.76446 -1.88868,16.54649 -5.66648,23.34649 -3.62666,6.64894 -8.61354,11.86257 -14.96021,15.6403 -6.34667,3.62667 -13.59999,5.43961 -21.75999,5.43961 -8.16,0 -15.41332,-1.81294 -21.75998,-5.43961 -6.34667,-3.77773 -11.40884,-8.99136 -15.18657,-15.6403 -3.62667,-6.8 -5.44013,-14.58203 -5.44013,-23.34649 0,-8.91554 1.81346,-16.69808 5.44013,-23.34701 3.7778,-6.64887 8.8399,-11.78625 15.18657,-15.41292 6.34666,-3.62667 13.59998,-5.44012 21.75998,-5.44012 z m 203.91402,0 c 8.4622,0 15.94227,1.73766 22.44007,5.21326 6.4978,3.3244 11.55986,8.08463 15.18656,14.28013 3.7778,6.1956 5.667,13.37312 5.667,21.53312 0,8.16 -1.8892,15.41329 -5.667,21.75999 -3.6267,6.1956 -8.68876,11.0314 -15.18656,14.507 -6.4978,3.4756 -13.97787,5.21326 -22.44007,5.21326 -8.3111,0 -15.7154,-1.73766 -22.2132,-5.21326 -6.4978,-3.4756 -11.63563,-8.3114 -15.41343,-14.507 -3.6267,-6.3467 -5.44013,-13.59999 -5.44013,-21.75999 0,-8.16 1.81343,-15.33752 5.44013,-21.53312 3.7778,-6.1955 8.91563,-10.95573 15.41343,-14.28013 6.4978,-3.4756 13.9021,-5.21326 22.2132,-5.21326 z m 311.0923,0 c 8.16,0 15.41332,1.81345 21.75999,5.44012 6.34667,3.62667 11.33303,8.76405 14.9597,15.41292 3.7778,6.64893 5.66699,14.43147 5.66699,23.34701 0,8.76446 -1.88912,16.54649 -5.66699,23.34649 -3.62667,6.64894 -8.61355,11.86257 -14.96022,15.6403 -6.34666,3.62667 -13.59998,5.43961 -21.75998,5.43961 -8.16,0 -15.41332,-1.81294 -21.75999,-5.43961 -6.34667,-3.77773 -11.40877,-8.99136 -15.18657,-15.6403 -3.62666,-6.8 -5.44012,-14.58203 -5.44012,-23.34649 0,-8.91554 1.81346,-16.69808 5.44012,-23.34701 3.7778,-6.64887 8.8399,-11.78625 15.18657,-15.41292 6.34673,-3.62667 13.6005,-5.44012 21.7605,-5.44012 z m -97.791,4.36005 V 248.1033 c 0,7.2533 -1.66189,12.69316 -4.98639,16.31986 -3.1733,3.6266 -7.78242,5.44013 -13.82692,5.44013 -7.4044,0 -13.44884,-1.88868 -18.13324,-5.66648 l -6.34655,14.28014 c 3.0223,2.5689 6.79964,4.45757 11.33294,5.66647 4.5334,1.2089 9.29354,1.81338 14.28014,1.81338 11.7867,0 20.85351,-3.40017 27.20011,-10.20017 6.3467,-6.8 9.52009,-16.01773 9.52009,-27.65333 V 141.16997 Z"
       transform="matrix(0.88606518,0,0,0.88606518,27.658192,-11.330506)"
       inkscape:label="wordmark" /><path
       id="circle-start"
       style="fill:none;stroke:#d40000;stroke-width:15"
       class="red"
       inkscape:label="circle-start"
       d="M 76,180 A 18,18 0 0 1 58,198 18,18 0 0 1 40,180 18,18 0 0 1 58,162 18,18 0 0 1 76,180 Z" /></g><style
     type="text/css"
     id="style15499">
    circle,path{fill:none;stroke:#000;stroke-width:12}path{stroke-width:20}.orange{stroke:#d45500}.red{stroke:#a00}
  </style></svg>
